<svg width="3200" height="3200" xmlns="http://www.w3.org/2000/svg">
 <g>
  <title>Layer 1</title>
  <ellipse fill="#2a9e9e" stroke="#000" cx="574.07176" cy="176.21407" id="e_1" rx="168.5" ry="128.5"/>
  <rect fill="#005fbf" stroke="#000" x="79" y="76" width="206" height="196" id="e_2"/>
  <ellipse fill="#2a9e9e" stroke="#000" cx="1309.7874" cy="172.64264" id="svg_1" rx="168.5" ry="128.5"/>
  <ellipse fill="#2a9e9e" stroke="#000" cx="2127.6461" cy="179.78551" id="svg_2" rx="168.5" ry="128.5"/>
  <ellipse fill="#2a9e9e" stroke="#000" cx="2874.07591" cy="169.0712" id="svg_3" rx="168.5" ry="128.5"/>
  <ellipse fill="#2a9e9e" stroke="#000" cx="966.92964" cy="669.07214" id="svg_4" rx="168.5" ry="128.5"/>
  <ellipse fill="#2a9e9e" stroke="#000" cx="213.35683" cy="676.21499" id="svg_5" rx="168.5" ry="128.5"/>
  <ellipse fill="#2a9e9e" stroke="#000" cx="1802.64549" cy="665.50069" id="svg_6" rx="168.5" ry="128.5"/>
  <ellipse fill="#2a9e9e" stroke="#000" cx="2563.36119" cy="654.78637" id="svg_7" rx="168.5" ry="128.5"/>
  <ellipse fill="#2a9e9e" stroke="#000" cx="602.64324" cy="1283.35897" id="svg_8" rx="168.5" ry="128.5"/>
  <ellipse fill="#2a9e9e" stroke="#000" cx="1402.6447" cy="1265.50179" id="svg_9" rx="168.5" ry="128.5"/>
  <ellipse fill="#2a9e9e" stroke="#000" cx="2206.21764" cy="1272.64462" id="svg_10" rx="168.5" ry="128.5"/>
  <ellipse fill="#2a9e9e" stroke="#000" cx="2920.50462" cy="1297.64474" id="svg_11" rx="168.5" ry="128.5"/>
  <ellipse fill="#2a9e9e" stroke="#000" cx="213.35683" cy="1901.21725" id="svg_12" rx="168.5" ry="128.5"/>
  <ellipse fill="#2a9e9e" stroke="#000" cx="1084.78697" cy="1876.21725" id="svg_13" rx="168.5" ry="128.5"/>
  <ellipse fill="#2a9e9e" stroke="#000" cx="1856.21703" cy="1890.50289" id="svg_14" rx="168.5" ry="128.5"/>
  <ellipse fill="#2a9e9e" stroke="#000" cx="2606.21837" cy="1865.50289" id="svg_15" rx="168.5" ry="128.5"/>
  <ellipse fill="#2a9e9e" stroke="#000" cx="638.3576" cy="2429.78976" id="svg_16" rx="168.5" ry="128.5"/>
  <ellipse fill="#2a9e9e" stroke="#000" cx="1509.78777" cy="2419.0754" id="svg_17" rx="168.5" ry="128.5"/>
  <ellipse fill="#2a9e9e" stroke="#000" cx="2299.07494" cy="2390.50387" id="svg_18" rx="168.5" ry="128.5"/>
  <ellipse fill="#2a9e9e" stroke="#000" cx="3009.79051" cy="2379.78951" id="svg_19" rx="168.5" ry="128.5"/>
  <ellipse fill="#2a9e9e" stroke="#000" cx="213.35683" cy="2979.79073" id="svg_20" rx="168.5" ry="128.5"/>
  <ellipse fill="#2a9e9e" stroke="#000" cx="1056.2155" cy="2969.07638" id="svg_21" rx="168.5" ry="128.5"/>
  <ellipse fill="#2a9e9e" stroke="#000" cx="1884.78844" cy="2944.07638" id="svg_22" rx="168.5" ry="128.5"/>
  <ellipse fill="#2a9e9e" stroke="#000" cx="2652.64696" cy="2940.50484" id="svg_23" rx="168.5" ry="128.5"/>
 </g>

</svg>